<svg width="50" height="50" viewBox="0 0 50 50" fill="none" xmlns="http://www.w3.org/2000/svg">
<g id="mdi:art">
<path id="Vector" d="M36.4583 25C35.6295 25 34.8347 24.6708 34.2486 24.0847C33.6626 23.4987 33.3333 22.7038 33.3333 21.875C33.3333 21.0462 33.6626 20.2513 34.2486 19.6653C34.8347 19.0792 35.6295 18.75 36.4583 18.75C37.2871 18.75 38.082 19.0792 38.668 19.6653C39.2541 20.2513 39.5833 21.0462 39.5833 21.875C39.5833 22.7038 39.2541 23.4987 38.668 24.0847C38.082 24.6708 37.2871 25 36.4583 25ZM30.2083 16.6667C29.3795 16.6667 28.5847 16.3374 27.9986 15.7514C27.4126 15.1653 27.0833 14.3705 27.0833 13.5417C27.0833 12.7129 27.4126 11.918 27.9986 11.332C28.5847 10.7459 29.3795 10.4167 30.2083 10.4167C31.0371 10.4167 31.832 10.7459 32.418 11.332C33.0041 11.918 33.3333 12.7129 33.3333 13.5417C33.3333 14.3705 33.0041 15.1653 32.418 15.7514C31.832 16.3374 31.0371 16.6667 30.2083 16.6667ZM19.7917 16.6667C18.9629 16.6667 18.168 16.3374 17.582 15.7514C16.9959 15.1653 16.6667 14.3705 16.6667 13.5417C16.6667 12.7129 16.9959 11.918 17.582 11.332C18.168 10.7459 18.9629 10.4167 19.7917 10.4167C20.6205 10.4167 21.4153 10.7459 22.0014 11.332C22.5874 11.918 22.9167 12.7129 22.9167 13.5417C22.9167 14.3705 22.5874 15.1653 22.0014 15.7514C21.4153 16.3374 20.6205 16.6667 19.7917 16.6667ZM13.5417 25C12.7129 25 11.918 24.6708 11.332 24.0847C10.7459 23.4987 10.4167 22.7038 10.4167 21.875C10.4167 21.0462 10.7459 20.2513 11.332 19.6653C11.918 19.0792 12.7129 18.75 13.5417 18.75C14.3705 18.75 15.1653 19.0792 15.7514 19.6653C16.3374 20.2513 16.6667 21.0462 16.6667 21.875C16.6667 22.7038 16.3374 23.4987 15.7514 24.0847C15.1653 24.6708 14.3705 25 13.5417 25ZM25 6.25C20.0272 6.25 15.2581 8.22544 11.7417 11.7417C8.22544 15.2581 6.25 20.0272 6.25 25C6.25 29.9728 8.22544 34.7419 11.7417 38.2583C15.2581 41.7746 20.0272 43.75 25 43.75C25.8288 43.75 26.6237 43.4208 27.2097 42.8347C27.7958 42.2487 28.125 41.4538 28.125 40.625C28.125 39.8125 27.8125 39.0833 27.3125 38.5417C26.8333 37.9792 26.5208 37.25 26.5208 36.4583C26.5208 35.6295 26.8501 34.8347 27.4361 34.2486C28.0222 33.6626 28.817 33.3333 29.6458 33.3333H33.3333C36.096 33.3333 38.7455 32.2359 40.699 30.2824C42.6525 28.3289 43.75 25.6793 43.75 22.9167C43.75 13.7083 35.3542 6.25 25 6.25Z" fill="#FF404E"/>
</g>
</svg>
