<svg width="40" height="32" viewBox="0 0 40 32" fill="none" xmlns="http://www.w3.org/2000/svg">
<g id="fa6-solid:stapler">
<path id="Vector" d="M40 18.7062V27C40 28.6562 38.6562 30 37 30H4C2.89375 30 2 29.1063 2 28C2 26.8937 2.89375 26 4 26H28V23H6C4.89375 23 4 22.1063 4 21V13.7125L2.1125 13.375C0.8875 13.1562 0 12.0938 0 10.8562C0 10.3 0.18125 9.7625 0.5125 9.31875L2.7375 6.35C4.79375 3.6125 8.0125 2 11.4312 2C13.1187 2 14.7813 2.39375 16.2938 3.15L36.6813 13.3438C38.7188 14.3562 40 16.4375 40 18.7062ZM28 19V18L8 14.4312V19H28Z" fill="#FF404E"/>
</g>
</svg>
