<svg width="40" height="40" viewBox="0 0 40 40" fill="none" xmlns="http://www.w3.org/2000/svg">
<g id="ri:file-paper-2-fill">
<path id="Vector" d="M33.3333 3.33334C34.6594 3.33334 35.9312 3.86013 36.8689 4.79781C37.8065 5.73549 38.3333 7.00726 38.3333 8.33334V11.6667H35V31.6667C35 32.9928 34.4732 34.2645 33.5355 35.2022C32.5978 36.1399 31.3261 36.6667 30 36.6667H6.66666C5.34057 36.6667 4.0688 36.1399 3.13112 35.2022C2.19344 34.2645 1.66666 32.9928 1.66666 31.6667V28.3333H28.3333V31.6667C28.3334 32.0749 28.4833 32.4689 28.7545 32.774C29.0258 33.079 29.3996 33.2739 29.805 33.3217L30 33.3333C30.4082 33.3333 30.8022 33.1834 31.1073 32.9121C31.4123 32.6409 31.6072 32.2671 31.655 31.8617L31.6667 31.6667V25H4.99999V8.33334C4.99999 7.00726 5.52677 5.73549 6.46446 4.79781C7.40214 3.86013 8.67391 3.33334 9.99999 3.33334H33.3333Z" fill="#FF404E"/>
</g>
</svg>
