<svg width="12" height="40" viewBox="0 0 12 40" fill="none" xmlns="http://www.w3.org/2000/svg">
<g id="heroicons:folder-20-solid">
<path id="Vector" d="M7.5 6C6.57174 6 5.6815 6.36875 5.02513 7.02513C4.36875 7.6815 4 8.57174 4 9.5V16.02C5.04502 15.3521 6.25976 14.9981 7.5 15H32.5C33.788 15 34.99 15.376 36 16.02V13.5C36 12.5717 35.6313 11.6815 34.9749 11.0251C34.3185 10.3687 33.4283 10 32.5 10H22.828C22.7623 10.0001 22.6972 9.98728 22.6365 9.96223C22.5757 9.93718 22.5205 9.9004 22.474 9.854L19.646 7.026C18.99 6.36952 18.1001 6.00046 17.172 6H7.5ZM7.5 18C6.57174 18 5.6815 18.3687 5.02513 19.0251C4.36875 19.6815 4 20.5717 4 21.5V30.5C4 32.432 5.568 34 7.5 34H32.5C33.4283 34 34.3185 33.6313 34.9749 32.9749C35.6313 32.3185 36 31.4283 36 30.5V21.5C36 20.5717 35.6313 19.6815 34.9749 19.0251C34.3185 18.3687 33.4283 18 32.5 18H7.5Z" fill="#FF404E"/>
</g>
</svg>
