<svg width="40" height="40" viewBox="0 0 40 40" fill="none" xmlns="http://www.w3.org/2000/svg">
<g id="solar:pen-bold">
<path id="Vector" d="M19 30.2683L31.3267 17.9417C29.253 17.0754 27.3696 15.8103 25.7833 14.2183C24.1905 12.6317 22.9249 10.7478 22.0583 8.67334L9.73166 21C8.76999 21.9617 8.28832 22.4433 7.87499 22.9733C7.38731 23.5991 6.96876 24.2758 6.62666 24.9917C6.33832 25.5983 6.12332 26.245 5.69332 27.535L3.42332 34.34C3.31885 34.6516 3.30335 34.9861 3.37856 35.306C3.45378 35.6259 3.61674 35.9185 3.84911 36.1509C4.08148 36.3833 4.37407 36.5462 4.69397 36.6214C5.01387 36.6966 5.34841 36.6811 5.65999 36.5767L12.465 34.3067C13.7567 33.8767 14.4017 33.6617 15.0083 33.3733C15.7272 33.0311 16.4 32.615 17.0267 32.125C17.5567 31.7117 18.0383 31.23 19 30.2683ZM34.7467 14.5217C35.9757 13.2926 36.6662 11.6257 36.6662 9.8875C36.6662 8.14935 35.9757 6.48239 34.7467 5.25334C33.5176 4.02428 31.8506 3.3338 30.1125 3.3338C28.3743 3.3338 26.7074 4.02428 25.4783 5.25334L24 6.73167L24.0633 6.91667C24.7916 9.0013 25.9838 10.8933 27.55 12.45C29.1532 14.063 31.1115 15.2787 33.2683 16L34.7467 14.5217Z" fill="#FF404E"/>
</g>
</svg>
